<?xml version="1.0" encoding="utf-8"?>
<!-- Generator: Adobe Illustrator 26.2.1, SVG Export Plug-In . SVG Version: 6.00 Build 0)  -->
<svg version="1.1" id="Calque_1" xmlns="http://www.w3.org/2000/svg" xmlns:xlink="http://www.w3.org/1999/xlink" x="0px" y="0px"
	 viewBox="0 0 512 512" style="enable-background:new 0 0 512 512;" xml:space="preserve">
<style type="text/css">
	.st0{fill:#1F2937;stroke:#A855F7;stroke-width:8;}
	.st1{opacity:0.4;fill:none;stroke:#A855F7;stroke-width:4;enable-background:new    ;}
	.st2{fill:#A855F7;stroke:#1F2937;stroke-miterlimit:10;}
	.st3{font-family:'Arial-BoldMT';}
	.st4{font-size:158.0839px;}
	.st5{font-family:'KozGoPr6N-Regular-90ms-RKSJ-H';}
	.st6{font-size:135.5005px;}
	.st7{fill:#A855F7;stroke:#A855F7;stroke-width:3;stroke-linecap:round;}
	.st8{fill:#A855F7;stroke:#A855F7;stroke-width:3;stroke-linecap:round;stroke-linejoin:round;}
	.st9{fill:#A855F7;stroke:#A855F7;stroke-width:8;}
	.st10{fill:#1F2937;stroke:#1F2937;}
</style>
<circle class="st0" cx="256" cy="256" r="200"/>
<ellipse class="st1" cx="256" cy="256" rx="180" ry="60"/>
<ellipse class="st1" cx="256" cy="256" rx="180" ry="120"/>
<line class="st1" x1="256" y1="56" x2="256" y2="456"/>
<ellipse class="st1" cx="256" cy="256" rx="60" ry="180"/>
<ellipse class="st1" cx="256" cy="256" rx="120" ry="180"/>
<text transform="matrix(1 0 0 1 100.55 218.6214)" class="st2 st3 st4">A</text>
<text transform="matrix(1 0 0 1 281.2126 371.0629)" class="st2 st5 st6">文</text>
<path class="st7" d="M216.6,183l109.9,81.9"/>
<path class="st8" d="M326.5,264.9l-50.9-13.5 M326.5,264.9L298.9,220"/>
<g transform="translate(210, 280)">
	<path class="st9" d="M-83.1-15.1H8.4c15.2,0,27.4,12.3,27.4,27.4V49c0,15.2-12.3,27.4-27.4,27.4h-91.5c-15.2,0-27.4-12.3-27.4-27.4
		V12.4C-110.5-2.8-98.2-15.1-83.1-15.1z"/>
	<circle class="st10" cx="-64.8" cy="30.7" r="14.6"/>
	<circle class="st10" cx="-9.9" cy="17.9" r="11"/>
	<circle class="st10" cx="13.9" cy="30.7" r="11"/>
</g>
</svg>
