<?xml version="1.0" encoding="utf-8"?>
<!-- Generator: Adobe Illustrator 26.2.1, SVG Export Plug-In . SVG Version: 6.00 Build 0)  -->
<svg version="1.1" id="Calque_1" xmlns="http://www.w3.org/2000/svg" xmlns:xlink="http://www.w3.org/1999/xlink" x="0px" y="0px"
	 viewBox="0 0 512 512" style="enable-background:new 0 0 512 512;" xml:space="preserve">
<style type="text/css">
	.st0{fill:#1F2937;stroke:#A855F7;stroke-width:8;}
	.st1{opacity:0.4;fill:none;stroke:#A855F7;stroke-width:4;enable-background:new    ;}
	.st2{fill:none;stroke:#A855F7;stroke-width:12;stroke-linecap:round;stroke-linejoin:round;}
	.st3{fill:none;stroke:#A855F7;stroke-width:8;stroke-linecap:round;stroke-linejoin:round;}
	.st4{fill:#A855F7;}
	.st5{fill:#1F2937;}
</style>
<circle class="st0" cx="256" cy="256" r="200"/>
<ellipse class="st1" cx="256" cy="256" rx="180" ry="60"/>
<ellipse class="st1" cx="256" cy="256" rx="180" ry="120"/>
<line class="st1" x1="256" y1="56" x2="256" y2="456"/>
<ellipse class="st1" cx="256" cy="256" rx="60" ry="180"/>
<ellipse class="st1" cx="256" cy="256" rx="120" ry="180"/>
<g transform="translate(180, 170)">
	<path class="st2" d="M-35.5,123.3L39-75.5l74.6,198.8 M-10.7,48.7h99.4"/>
	<path class="st3" d="M138.4,23.9h49.7 M175.7-1l24.9,24.9l-24.9,24.9"/>
</g>
<g transform="translate(210, 280)">
	<path class="st4" d="M-3.4,13.3h124.3c20.6,0,37.3,16.7,37.3,37.3v49.7c0,20.6-16.7,37.3-37.3,37.3H-3.4
		c-20.6,0-37.3-16.7-37.3-37.3V50.6C-40.7,30-24,13.3-3.4,13.3z"/>
	<circle class="st5" cx="21.4" cy="75.4" r="19.9"/>
	<circle class="st5" cx="96" cy="58" r="14.9"/>
	<circle class="st5" cx="128.3" cy="75.4" r="14.9"/>
</g>
</svg>
